<svg xmlns="http://www.w3.org/2000/svg" viewBox="0 0 200 200" width="200" height="200">
<style>
@keyframes shake{0%,100%{transform:translateX(0)}25%{transform:translateX(-1.5px)}75%{transform:translateX(1.5px)}}
@keyframes smoke{0%{opacity:0.7;transform:translateY(0) scale(0.6)}100%{opacity:0;transform:translateY(-22px) scale(1.5)}}
@keyframes flicker{0%,100%{opacity:1}50%{opacity:0.2}}
</style>
<ellipse cx="100" cy="172" rx="42" ry="6" fill="#2E2418" opacity="0.25"/>
<!-- smoke from wand tip -->
<g style="animation:smoke 1.6s ease-out infinite"><circle cx="143" cy="88" r="5" fill="#9A9A9A"/></g>
<g style="animation:smoke 1.6s ease-out infinite 0.5s"><circle cx="148" cy="84" r="4" fill="#ABABAB"/></g>
<g style="animation:smoke 1.6s ease-out infinite 1s"><circle cx="139" cy="84" r="3.5" fill="#8A8A8A"/></g>
<polyline points="143,90 147,84 142,80 146,74" stroke="#E04B3A" stroke-width="2" fill="none" stroke-linecap="round" style="animation:flicker 0.4s linear infinite"/>
<g style="animation:shake 0.45s linear infinite">
  <ellipse cx="87" cy="167" rx="10" ry="4.5" fill="#2A2A2A"/>
  <ellipse cx="113" cy="167" rx="10" ry="4.5" fill="#2A2A2A"/>
  <path d="M68,166 Q64,122 100,112 Q136,122 132,166 Z" fill="#3D3D55"/>
  <path d="M100,114 L92,166 L108,166 Z" fill="#6E1414"/>
  <path d="M100,114 L96,166 L104,166 Z" fill="#8C1B1B"/>
  <g transform="rotate(18 74 132)"><ellipse cx="74" cy="134" rx="7.5" ry="15" fill="#34344A"/></g>
  <circle cx="68" cy="147" r="5" fill="#F6D6AE"/>
  <g transform="rotate(150 128 128)"><ellipse cx="128" cy="128" rx="7" ry="14" fill="#34344A"/></g>
  <circle cx="134" cy="115" r="5" fill="#F6D6AE"/>
  <line x1="134" y1="114" x2="143" y2="92" stroke="#7A4A21" stroke-width="3.5" stroke-linecap="round"/>
  <circle cx="143" cy="92" r="1.8" fill="#4A4A4A"/>
  <circle cx="100" cy="80" r="34" fill="#F6D6AE"/>
  <ellipse cx="79" cy="96" rx="5" ry="3" fill="#F0AE9B" opacity="0.6"/>
  <ellipse cx="121" cy="96" rx="5" ry="3" fill="#F0AE9B" opacity="0.6"/>
  <ellipse cx="118" cy="101" rx="4.5" ry="2.5" fill="#5A5A5A" opacity="0.4"/>
  <path d="M94,106 Q97,103 100,106 Q103,109 106,106" stroke="#B06A5A" stroke-width="1.8" fill="none" stroke-linecap="round"/>
  <ellipse cx="86" cy="90" rx="7.5" ry="8.5" fill="#FFFFFF"/>
  <ellipse cx="114" cy="90" rx="7.5" ry="8.5" fill="#FFFFFF"/>
  <circle cx="86" cy="90" r="3.6" fill="#2F7A3F"/>
  <circle cx="114" cy="90" r="3.6" fill="#2F7A3F"/>
  <circle cx="84.5" cy="88.5" r="1.3" fill="#FFFFFF"/>
  <circle cx="112.5" cy="88.5" r="1.3" fill="#FFFFFF"/>
  <line x1="78" y1="76" x2="92" y2="80" stroke="#26221F" stroke-width="2" stroke-linecap="round"/>
  <line x1="122" y1="76" x2="108" y2="80" stroke="#26221F" stroke-width="2" stroke-linecap="round"/>
  <path d="M66,88 Q58,40 100,36 Q142,40 134,88 L130,72 L122,80 L118,64 L108,74 L104,60 L96,70 L92,56 L86,58 L82,72 L74,66 L70,80 Z" fill="#26221F"/>
  <polyline points="89,60 85,65 89,69 85,74" stroke="#C94F3D" stroke-width="2.2" fill="none" stroke-linecap="round" stroke-linejoin="round"/>
  <circle cx="86" cy="90" r="11.5" fill="none" stroke="#1C1C1C" stroke-width="2.5"/>
  <circle cx="114" cy="90" r="11.5" fill="none" stroke="#1C1C1C" stroke-width="2.5"/>
  <line x1="97.5" y1="90" x2="102.5" y2="90" stroke="#1C1C1C" stroke-width="2.5"/>
  <rect x="78" y="106" width="44" height="11" rx="5.5" fill="#7F0909"/>
  <rect x="86" y="106" width="7" height="11" fill="#E6A817"/>
  <rect x="100" y="106" width="7" height="11" fill="#E6A817"/>
  <rect x="109" y="115" width="11" height="26" rx="2" fill="#7F0909"/>
  <rect x="109" y="121" width="11" height="5" fill="#E6A817"/>
  <rect x="109" y="131" width="11" height="5" fill="#E6A817"/>
</g>
</svg>
