<svg xmlns="http://www.w3.org/2000/svg" viewBox="0 0 200 200" width="200" height="200">
<style>
@keyframes breathe{0%,100%{transform:translateY(0)}50%{transform:translateY(-2px)}}
@keyframes bob1{0%,100%{transform:translateY(0)}50%{transform:translateY(-8px)}}
@keyframes bob2{0%,100%{transform:translateY(-6px)}50%{transform:translateY(2px)}}
@keyframes bob3{0%,100%{transform:translateY(-2px)}50%{transform:translateY(-10px)}}
@keyframes sparkle{0%,100%{opacity:0.25;transform:scale(0.7)}50%{opacity:1;transform:scale(1.1)}}
@keyframes wandWave{0%,100%{transform:rotate(-4deg)}50%{transform:rotate(6deg)}}
</style>
<ellipse cx="100" cy="172" rx="42" ry="6" fill="#2E2418" opacity="0.25"/>
<!-- floating potions -->
<g style="animation:bob1 1.6s ease-in-out infinite"><g transform="translate(66,48)">
  <circle cx="0" cy="4" r="7.5" fill="#C0392B" opacity="0.85"/><rect x="-2.5" y="-8" width="5" height="8" fill="#D7E6F0" opacity="0.85"/><circle cx="0" cy="4" r="7.5" fill="none" stroke="#5E7F8F" stroke-width="1.3"/><rect x="-3.2" y="-11" width="6.4" height="3.4" rx="1.2" fill="#8B5A2B"/>
</g></g>
<g style="animation:bob2 1.6s ease-in-out infinite 0.3s"><g transform="translate(98,34)">
  <circle cx="0" cy="4" r="7.5" fill="#7FB069" opacity="0.85"/><rect x="-2.5" y="-8" width="5" height="8" fill="#D7E6F0" opacity="0.85"/><circle cx="0" cy="4" r="7.5" fill="none" stroke="#5E7F8F" stroke-width="1.3"/><rect x="-3.2" y="-11" width="6.4" height="3.4" rx="1.2" fill="#8B5A2B"/>
</g></g>
<g style="animation:bob3 1.6s ease-in-out infinite 0.6s"><g transform="translate(130,50)">
  <circle cx="0" cy="4" r="7.5" fill="#4A90D9" opacity="0.85"/><rect x="-2.5" y="-8" width="5" height="8" fill="#D7E6F0" opacity="0.85"/><circle cx="0" cy="4" r="7.5" fill="none" stroke="#5E7F8F" stroke-width="1.3"/><rect x="-3.2" y="-11" width="6.4" height="3.4" rx="1.2" fill="#8B5A2B"/>
</g></g>
<g style="animation:sparkle 1.4s ease-in-out infinite"><g transform="translate(82,28)"><path d="M0,-4 L1,-1 L4,0 L1,1 L0,4 L-1,1 L-4,0 L-1,-1 Z" fill="#E8B923"/></g></g>
<g style="animation:sparkle 1.4s ease-in-out infinite 0.5s"><g transform="translate(116,24)"><path d="M0,-4 L1,-1 L4,0 L1,1 L0,4 L-1,1 L-4,0 L-1,-1 Z" fill="#E8B923"/></g></g>
<g style="animation:breathe 3.5s ease-in-out infinite">
  <ellipse cx="87" cy="167" rx="10" ry="4.5" fill="#2A2A2A"/>
  <ellipse cx="113" cy="167" rx="10" ry="4.5" fill="#2A2A2A"/>
  <path d="M68,166 Q64,122 100,112 Q136,122 132,166 Z" fill="#3D3D55"/>
  <path d="M100,114 L92,166 L108,166 Z" fill="#6E1414"/>
  <path d="M100,114 L96,166 L104,166 Z" fill="#8C1B1B"/>
  <g transform="rotate(18 74 132)"><ellipse cx="74" cy="134" rx="7.5" ry="15" fill="#34344A"/></g>
  <circle cx="68" cy="147" r="5" fill="#F6D6AE"/>
  <!-- raised wand arm -->
  <g style="transform-origin:126px 126px;animation:wandWave 1.6s ease-in-out infinite">
    <g transform="rotate(150 128 128)"><ellipse cx="128" cy="128" rx="7" ry="14" fill="#34344A"/></g>
    <circle cx="134" cy="115" r="5" fill="#F6D6AE"/>
    <line x1="134" y1="114" x2="143" y2="92" stroke="#7A4A21" stroke-width="3.5" stroke-linecap="round"/>
    <circle cx="143" cy="92" r="1.8" fill="#A97845"/>
  </g>
  <circle cx="100" cy="80" r="34" fill="#F6D6AE"/>
  <ellipse cx="79" cy="96" rx="5" ry="3" fill="#F0AE9B" opacity="0.6"/>
  <ellipse cx="121" cy="96" rx="5" ry="3" fill="#F0AE9B" opacity="0.6"/>
  <path d="M94,104 Q100,109 106,104" stroke="#B06A5A" stroke-width="1.8" fill="none" stroke-linecap="round"/>
  <ellipse cx="86" cy="90" rx="7.5" ry="8.5" fill="#FFFFFF"/>
  <ellipse cx="114" cy="90" rx="7.5" ry="8.5" fill="#FFFFFF"/>
  <circle cx="86" cy="87.5" r="4.2" fill="#2F7A3F"/>
  <circle cx="114" cy="87.5" r="4.2" fill="#2F7A3F"/>
  <circle cx="84.5" cy="86" r="1.5" fill="#FFFFFF"/>
  <circle cx="112.5" cy="86" r="1.5" fill="#FFFFFF"/>
  <path d="M66,88 Q58,40 100,36 Q142,40 134,88 L130,72 L122,80 L118,64 L108,74 L104,60 L96,70 L92,56 L86,58 L82,72 L74,66 L70,80 Z" fill="#26221F"/>
  <polyline points="89,60 85,65 89,69 85,74" stroke="#C94F3D" stroke-width="2.2" fill="none" stroke-linecap="round" stroke-linejoin="round"/>
  <circle cx="86" cy="90" r="11.5" fill="none" stroke="#1C1C1C" stroke-width="2.5"/>
  <circle cx="114" cy="90" r="11.5" fill="none" stroke="#1C1C1C" stroke-width="2.5"/>
  <line x1="97.5" y1="90" x2="102.5" y2="90" stroke="#1C1C1C" stroke-width="2.5"/>
  <rect x="78" y="106" width="44" height="11" rx="5.5" fill="#7F0909"/>
  <rect x="86" y="106" width="7" height="11" fill="#E6A817"/>
  <rect x="100" y="106" width="7" height="11" fill="#E6A817"/>
  <rect x="109" y="115" width="11" height="26" rx="2" fill="#7F0909"/>
  <rect x="109" y="121" width="11" height="5" fill="#E6A817"/>
  <rect x="109" y="131" width="11" height="5" fill="#E6A817"/>
</g>
</svg>
