<svg xmlns="http://www.w3.org/2000/svg" viewBox="0 0 200 200" width="200" height="200">
<style>
@keyframes huff{0%,100%{transform:translateX(0)}25%{transform:translateX(-1px)}75%{transform:translateX(1px)}}
@keyframes angerPop{0%,100%{opacity:0.5;transform:scale(0.85)}50%{opacity:1;transform:scale(1.1)}}
</style>
<ellipse cx="100" cy="172" rx="42" ry="6" fill="#2E2418" opacity="0.25"/>
<g style="transform-origin:140px 46px;animation:angerPop 0.8s ease-in-out infinite"><g transform="translate(140,46)" stroke="#D23B3B" stroke-width="2.2" stroke-linecap="round" fill="none">
  <path d="M-4,0 Q-1,-4 2,0"/>
  <path d="M0,5 Q3,1 6,5"/>
</g></g>
<g style="animation:huff 0.5s linear infinite">
  <ellipse cx="87" cy="167" rx="10" ry="4.5" fill="#2A2A2A"/>
  <ellipse cx="113" cy="167" rx="10" ry="4.5" fill="#2A2A2A"/>
  <path d="M68,166 Q64,122 100,112 Q136,122 132,166 Z" fill="#3D3D55"/>
  <path d="M100,114 L92,166 L108,166 Z" fill="#6E1414"/>
  <path d="M100,114 L96,166 L104,166 Z" fill="#8C1B1B"/>
  <circle cx="100" cy="80" r="34" fill="#F6D6AE"/>
  <ellipse cx="79" cy="97" rx="6" ry="4" fill="#F0AE9B" opacity="0.85"/>
  <ellipse cx="121" cy="97" rx="6" ry="4" fill="#F0AE9B" opacity="0.85"/>
  <path d="M94,107 Q100,103 106,107" stroke="#B06A5A" stroke-width="2" fill="none" stroke-linecap="round"/>
  <ellipse cx="86" cy="90" rx="7.5" ry="8.5" fill="#FFFFFF"/>
  <ellipse cx="114" cy="90" rx="7.5" ry="8.5" fill="#FFFFFF"/>
  <circle cx="86" cy="90" r="3.8" fill="#2F7A3F"/>
  <circle cx="114" cy="90" r="3.8" fill="#2F7A3F"/>
  <circle cx="84.8" cy="88.5" r="1.3" fill="#FFFFFF"/>
  <circle cx="112.8" cy="88.5" r="1.3" fill="#FFFFFF"/>
  <line x1="78" y1="80" x2="92" y2="76" stroke="#26221F" stroke-width="2.2" stroke-linecap="round"/>
  <line x1="122" y1="80" x2="108" y2="76" stroke="#26221F" stroke-width="2.2" stroke-linecap="round"/>
  <path d="M66,88 Q58,40 100,36 Q142,40 134,88 L130,72 L122,80 L118,64 L108,74 L104,60 L96,70 L92,56 L86,58 L82,72 L74,66 L70,80 Z" fill="#26221F"/>
  <polyline points="89,60 85,65 89,69 85,74" stroke="#C94F3D" stroke-width="2.2" fill="none" stroke-linecap="round" stroke-linejoin="round"/>
  <circle cx="86" cy="90" r="11.5" fill="none" stroke="#1C1C1C" stroke-width="2.5"/>
  <circle cx="114" cy="90" r="11.5" fill="none" stroke="#1C1C1C" stroke-width="2.5"/>
  <line x1="97.5" y1="90" x2="102.5" y2="90" stroke="#1C1C1C" stroke-width="2.5"/>
  <rect x="78" y="106" width="44" height="11" rx="5.5" fill="#7F0909"/>
  <rect x="86" y="106" width="7" height="11" fill="#E6A817"/>
  <rect x="100" y="106" width="7" height="11" fill="#E6A817"/>
  <rect x="109" y="115" width="11" height="26" rx="2" fill="#7F0909"/>
  <rect x="109" y="121" width="11" height="5" fill="#E6A817"/>
  <rect x="109" y="131" width="11" height="5" fill="#E6A817"/>
  <!-- crossed arms -->
  <rect x="74" y="124" width="52" height="12" rx="6" fill="#34344A" transform="rotate(7 100 130)"/>
  <rect x="74" y="124" width="52" height="12" rx="6" fill="#3D3D55" transform="rotate(-7 100 130)"/>
  <circle cx="79" cy="127" r="4.5" fill="#F6D6AE"/>
  <circle cx="121" cy="127" r="4.5" fill="#F6D6AE"/>
</g>
</svg>
