<svg xmlns="http://www.w3.org/2000/svg" viewBox="0 0 200 200" width="200" height="200">
<style>
@keyframes breathe{0%,100%{transform:translateY(0)}50%{transform:translateY(-2px)}}
@keyframes sweep{0%,100%{transform:rotate(5deg)}50%{transform:rotate(-6deg)}}
@keyframes dust{0%{opacity:0;transform:translate(0,0) scale(0.5)}40%{opacity:0.6}100%{opacity:0;transform:translate(10px,-8px) scale(1.3)}}
</style>
<ellipse cx="100" cy="172" rx="46" ry="6" fill="#2E2418" opacity="0.25"/>
<g style="animation:dust 1.4s ease-out infinite"><circle cx="142" cy="164" r="4" fill="#BCA98C"/></g>
<g style="animation:dust 1.4s ease-out infinite 0.7s"><circle cx="150" cy="166" r="3" fill="#CBB99A"/></g>
<g style="animation:breathe 3.5s ease-in-out infinite">
  <ellipse cx="87" cy="167" rx="10" ry="4.5" fill="#2A2A2A"/>
  <ellipse cx="113" cy="167" rx="10" ry="4.5" fill="#2A2A2A"/>
  <path d="M68,166 Q64,122 100,112 Q136,122 132,166 Z" fill="#3D3D55"/>
  <path d="M100,114 L92,166 L108,166 Z" fill="#6E1414"/>
  <path d="M100,114 L96,166 L104,166 Z" fill="#8C1B1B"/>
  <circle cx="100" cy="80" r="34" fill="#F6D6AE"/>
  <ellipse cx="79" cy="96" rx="5" ry="3" fill="#F0AE9B" opacity="0.6"/>
  <ellipse cx="121" cy="96" rx="5" ry="3" fill="#F0AE9B" opacity="0.6"/>
  <path d="M95,104 Q100,107 105,104" stroke="#B06A5A" stroke-width="1.8" fill="none" stroke-linecap="round"/>
  <ellipse cx="86" cy="90" rx="7.5" ry="8.5" fill="#FFFFFF"/>
  <ellipse cx="114" cy="90" rx="7.5" ry="8.5" fill="#FFFFFF"/>
  <circle cx="87.5" cy="92" r="4.2" fill="#2F7A3F"/>
  <circle cx="115.5" cy="92" r="4.2" fill="#2F7A3F"/>
  <circle cx="86" cy="90.5" r="1.5" fill="#FFFFFF"/>
  <circle cx="114" cy="90.5" r="1.5" fill="#FFFFFF"/>
  <path d="M66,88 Q58,40 100,36 Q142,40 134,88 L130,72 L122,80 L118,64 L108,74 L104,60 L96,70 L92,56 L86,58 L82,72 L74,66 L70,80 Z" fill="#26221F"/>
  <polyline points="89,60 85,65 89,69 85,74" stroke="#C94F3D" stroke-width="2.2" fill="none" stroke-linecap="round" stroke-linejoin="round"/>
  <circle cx="86" cy="90" r="11.5" fill="none" stroke="#1C1C1C" stroke-width="2.5"/>
  <circle cx="114" cy="90" r="11.5" fill="none" stroke="#1C1C1C" stroke-width="2.5"/>
  <line x1="97.5" y1="90" x2="102.5" y2="90" stroke="#1C1C1C" stroke-width="2.5"/>
  <rect x="78" y="106" width="44" height="11" rx="5.5" fill="#7F0909"/>
  <rect x="86" y="106" width="7" height="11" fill="#E6A817"/>
  <rect x="100" y="106" width="7" height="11" fill="#E6A817"/>
  <rect x="109" y="115" width="11" height="26" rx="2" fill="#7F0909"/>
  <rect x="109" y="121" width="11" height="5" fill="#E6A817"/>
  <rect x="109" y="131" width="11" height="5" fill="#E6A817"/>
  <!-- broom + arms sweep together -->
  <g style="transform-origin:80px 112px;animation:sweep 1.3s ease-in-out infinite">
    <g transform="rotate(40 80 128)"><ellipse cx="80" cy="128" rx="7" ry="13" fill="#34344A"/></g>
    <g transform="rotate(25 112 136)"><ellipse cx="112" cy="136" rx="7" ry="13" fill="#34344A"/></g>
    <line x1="80" y1="110" x2="128" y2="154" stroke="#8B5A2B" stroke-width="4" stroke-linecap="round"/>
    <circle cx="90" cy="119" r="5" fill="#F6D6AE"/>
    <circle cx="107" cy="135" r="5" fill="#F6D6AE"/>
    <rect x="123" y="147" width="10" height="8" rx="2" fill="#C9A227" transform="rotate(42 128 151)"/>
    <g stroke="#C9A227" stroke-width="2.5" stroke-linecap="round">
      <line x1="128" y1="154" x2="142" y2="166"/>
      <line x1="128" y1="154" x2="138" y2="169"/>
      <line x1="128" y1="154" x2="146" y2="162"/>
      <line x1="128" y1="154" x2="133" y2="171"/>
    </g>
    <g stroke="#B8860B" stroke-width="2" stroke-linecap="round">
      <line x1="128" y1="154" x2="144" y2="169"/>
      <line x1="128" y1="154" x2="136" y2="173"/>
    </g>
  </g>
</g>
</svg>
